 <svg version="1.0" xmlns="http://www.w3.org/2000/svg"  width="225.000000pt" height="225.000000pt" viewBox="0 0 225.000000 225.000000"  preserveAspectRatio="xMidYMid meet">  <g transform="translate(0.000000,225.000000) scale(0.100000,-0.100000)" fill="#2dd36f" stroke="none"> <path d="M989 2240 c-157 -20 -341 -88 -479 -178 -47 -31 -126 -97 -175 -147 -151 -150 -245 -316 -302 -532 -22 -86 -26 -118 -26 -258 0 -140 4 -172 26 -258 57 -216 151 -382 302 -532 150 -151 316 -245 532 -302 86 -22 118 -26 258 -26 140 0 172 4 258 26 216 57 382 151 532 302 151 150 245 316 302 532 22 86 26 118 26 258 0 140 -4 172 -26 258 -57 216 -151 382 -302 532 -150 151 -320 247 -530 300 -108 28 -289 39 -396 25z m79 -251 c48 -23 97 -83 107 -130 4 -16 10 -29 13 -29 4 0 17 18 30 41 31 54 74 79 138 79 74 0 145 -11 142 -22 -2 -6 -60 -42 -128 -82 l-125 -71 72 -6 c54 -4 81 -11 112 -32 53 -36 116 -116 157 -202 42 -87 44 -108 6 -72 -15 15 -35 27 -43 27 -8 0 -37 22 -64 50 -36 37 -54 48 -70 44 -16 -4 -24 3 -39 32 -13 27 -20 34 -26 24 -6 -9 -12 -5 -24 18 -15 28 -19 30 -36 20 -22 -14 -25 -24 -10 -33 5 -3 19 -38 31 -77 18 -58 21 -86 16 -162 -2 -50 -10 -104 -17 -121 -11 -28 -12 -29 -20 -9 -5 12 -11 43 -15 70 -12 91 -15 102 -33 100 -13 -1 -16 6 -14 27 4 39 -16 107 -32 107 -21 0 -40 -287 -33 -494 6 -197 26 -321 71 -458 35 -104 33 -117 -13 -119 -15 -1 2 -5 36 -9 53 -6 180 -56 170 -67 -2 -2 -33 4 -68 13 -90 23 -179 14 -319 -32 -150 -49 -238 -52 -320 -12 -51 25 -129 92 -119 102 2 2 38 -8 79 -22 97 -34 246 -37 395 -8 55 11 101 20 103 21 1 1 -4 18 -12 37 -8 19 -25 86 -38 149 -32 161 -33 517 0 757 27 197 26 182 2 182 -15 0 -22 -9 -27 -31 -3 -17 -14 -36 -24 -42 -11 -7 -19 -19 -19 -29 0 -28 -11 -47 -25 -42 -8 3 -26 -23 -50 -75 -21 -45 -43 -81 -48 -81 -17 0 -1 151 20 200 11 25 42 73 68 108 42 56 46 65 33 78 -13 14 -22 11 -81 -21 -39 -21 -68 -32 -71 -26 -4 6 -33 -4 -72 -25 -35 -20 -71 -33 -79 -30 -8 3 -31 -2 -51 -10 -36 -15 -57 -12 -38 5 108 103 198 178 232 193 38 17 56 19 130 13 l87 -8 -42 34 c-23 19 -42 39 -42 45 -1 6 -26 35 -56 63 -30 29 -53 57 -50 62 11 17 98 10 143 -12z m385 -887 c9 -8 17 -24 17 -36 0 -18 4 -16 33 12 32 31 68 40 95 24 9 -6 -1 -17 -34 -38 l-46 -29 39 -11 c27 -8 48 -24 75 -60 21 -27 38 -52 38 -56 0 -11 -57 12 -71 28 -6 8 -16 14 -22 14 -6 0 -19 7 -29 17 -26 23 -29 14 -13 -32 16 -46 19 -94 6 -114 -8 -12 -11 -8 -16 15 -4 16 -13 43 -21 61 -8 17 -14 36 -14 42 0 6 -4 11 -10 11 -5 0 -10 -17 -10 -37 0 -151 -84 -419 -128 -411 -23 4 -21 11 20 98 41 85 73 197 82 286 5 49 4 55 -5 37 -7 -13 -16 -23 -20 -23 -4 0 -13 -16 -19 -35 -6 -19 -16 -32 -22 -29 -14 9 0 83 23 120 26 43 24 49 -10 25 -15 -11 -30 -18 -33 -16 -2 3 -22 -4 -43 -15 -53 -27 -63 -15 -23 27 40 42 78 63 115 63 l27 0 -37 38 c-20 21 -37 41 -37 45 0 13 73 -4 93 -21z m-605 -132 c7 -11 22 -20 34 -20 20 0 20 -1 5 -18 -10 -10 -17 -31 -17 -46 0 -24 -2 -25 -20 -16 -14 8 -26 8 -40 0 -20 -11 -24 -8 -21 21 1 9 -5 22 -14 29 -21 17 -19 30 5 30 10 0 24 9 30 20 6 11 14 20 18 20 4 0 13 -9 20 -20z m-135 -120 c9 -11 24 -20 32 -20 19 0 19 -16 0 -24 -8 -3 -15 -16 -15 -28 0 -20 -5 -23 -44 -25 -39 -1 -43 1 -39 18 3 11 -2 28 -11 38 -16 18 -16 19 9 25 14 4 28 13 31 21 8 20 16 19 37 -5z m277 0 c6 -11 20 -20 30 -20 24 0 26 -13 5 -30 -9 -7 -15 -20 -13 -29 3 -18 -5 -23 -26 -15 -8 3 -24 1 -35 -6 -19 -10 -21 -8 -21 16 0 15 -7 36 -17 46 -15 17 -15 18 5 18 12 0 27 9 34 20 7 11 16 20 20 20 4 0 12 -9 18 -20z m-23 -170 c27 0 30 -12 7 -31 -10 -8 -13 -21 -9 -36 6 -26 2 -28 -26 -13 -13 8 -25 7 -39 0 -17 -9 -20 -8 -20 13 0 14 -7 30 -15 37 -22 18 -18 30 10 30 15 0 29 8 36 22 l12 23 10 -23 c6 -14 19 -22 34 -22z m-202 10 c4 -13 15 -20 31 -20 28 0 31 -12 8 -31 -9 -7 -14 -22 -11 -36 4 -19 1 -23 -12 -17 -9 4 -23 7 -31 7 -8 0 -22 -3 -31 -7 -13 -6 -16 -2 -12 17 3 14 -2 29 -11 36 -23 19 -20 31 8 31 16 0 27 7 31 20 3 11 10 20 15 20 5 0 12 -9 15 -20z m587 -260 c64 -18 59 -34 -8 -27 -32 3 -89 3 -127 -1 -75 -9 -87 5 -21 25 50 15 109 16 156 3z"/> </g> </svg> 